<?xml version="1.0" encoding="utf-8"?>
<!-- Generator: Adobe Illustrator 19.2.0, SVG Export Plug-In . SVG Version: 6.00 Build 0)  -->
<svg version="1.1" id="Layer_1" xmlns="http://www.w3.org/2000/svg" xmlns:xlink="http://www.w3.org/1999/xlink" x="0px" y="0px"
	 viewBox="0 0 500 400.5" style="enable-background:new 0 0 500 400.5;" xml:space="preserve">
<style type="text/css">
	.st0{fill:#FFFFFF;}
</style>
<path class="st0" d="M483.2,204.1c-5.3-2.4-13.1-3.6-24.2-0.5c4.4-15.4,0.1-27.4-7.3-34.5c-12.3-11.9-32.2-10.4-46.2,3.4
	c-14.3,14.1-30.9,23.2-41.4,28l-1.5-89.2C362.5,49.9,312.6,0,251.2,0h-0.5c-61.3,0-111.2,49.9-111.2,111.1l-1.5,89.4
	c-10.5-4.9-27.1-14-41.5-28c-14.1-13.8-33.9-15.3-46.2-3.4c-7.4,7.1-11.6,19.1-7.3,34.5c-11.1-3-19-1.9-24.2,0.5
	c-18,8.4-23.5,27.2-14.5,50.5c9.5,24.8,26.7,38.1,58.3,54.5c-1.6,4.1-2.5,8.4-2.6,12.8c-0.2,16.3,12.1,35.6,47.2,36.4
	c1.5,0,3.5,0,5.7,0c7.4,0,17.9-0.2,27.6-0.5c-0.8,2.2-1.2,4.6-1.4,7c-0.4,8.6,3.8,17.8,11.6,25.2c7.4,7,17,10.6,28.5,10.6
	c3.5,0,7-0.3,10.4-0.9c23.1-4,50.9-21.3,67-40.4c10.6,13.9,26.5,27,46.3,34.9c8.9,3.6,17.2,5.4,24.8,5.4c10.2,0,18.9-3.2,25.6-9.6
	c7.8-7.4,12-16.6,11.6-25.2c-0.1-2.4-0.6-4.7-1.4-7c9.2,0.3,18.9,0.5,25.8,0.5c2.1,0,4,0,5.5,0c35.1-0.8,47.4-20.1,47.2-36.4
	c-0.1-4.4-0.9-8.7-2.6-12.8c31.6-16.4,48.7-29.7,58.3-54.5C506.7,231.3,501.3,212.4,483.2,204.1 M420.5,187.8
	c6.4-6.2,13.2-6.4,16.3-3.3c4.4,4.2,4.5,17.6-13.3,37c-0.2,0.2-0.3,0.5-0.5,0.7c-1.5,1-2.9,2-4.4,3.2c-16.8,12.5-36.9,14-47.4,9
	c-4.8-2.2-6.4-5.2-6.9-7.4c0.1-0.6,0.1-1.2,0.1-1.9v-1.5C374.2,219.8,399.2,208.7,420.5,187.8 M78.5,221.5
	c-17.7-19.4-17.6-32.8-13.2-37c3.2-3,10-2.9,16.3,3.3c21.3,20.9,46.4,32.1,56,35.9l0,1.5c0,0.6,0,1.2,0.1,1.9
	c-0.5,2.1-2.1,5.1-6.9,7.4c-10.4,4.9-30.6,3.4-47.4-9c-1.5-1.1-3-2.1-4.5-3.2C78.8,221.9,78.6,221.7,78.5,221.5 M477.7,246.9
	c-6.9,17.8-18.8,28.2-52.1,45.2c-5.3-3.6-11.6-5.5-18-5.5c-24.4,0-45.8-7.4-46.1-7.5c-5.5-2.1-11.7,0.7-13.8,6.3
	c-2.1,5.5,0.7,11.7,6.3,13.8c0.1,0,0.3,0.1,0.4,0.1c1,0.3,25,8.6,53.2,8.6c7.4,0,12.9,7.4,13,14.1c0.1,8.9-9.7,14.4-26.3,14.7
	c-11.3,0.3-41.5-0.5-50.3-1.7c-0.5,0-1.1-0.1-1.7,0c-9.9-8.7-19-17.7-28-29.6c-3.6-4.7-10.3-5.6-15-2c-4.7,3.6-5.6,10.3-2,15
	c14,18.4,28.3,30.7,43.5,43.6c0.1,0.1,0.2,0.1,0.3,0.2c2.3,1.8,2.4,3.1,2.4,3.5c0.1,1.9-1.4,5.3-4.9,8.6c-7.3,7-21.8,2.2-27.7-0.1
	c-24.8-9.9-47.2-34-48.1-51.6c-0.3-5.9-5.3-10.5-11.2-10.2c-5.9,0.3-10.5,5.3-10.2,11.2l0,0c0.2,4.7,1.4,9.9,3.5,15.3
	c-9.5,15.5-36.5,35.7-58.9,39.6c-9.1,1.5-16,0.1-20.5-4.1c-3.5-3.4-5-6.8-4.9-8.6c0-0.4,0.1-1.7,2.4-3.5c0.1-0.1,0.2-0.1,0.3-0.2
	c15.2-12.9,29.5-25.1,43.5-43.6c3.5-4.7,2.6-11.5-2.2-15c-4.7-3.5-11.3-2.6-14.9,2c-9,11.9-18.1,20.8-28,29.6c-0.6,0-1.1,0-1.7,0
	c-8.5,1.1-40.8,2-52.3,1.7c-16.6-0.4-26.4-5.9-26.3-14.7c0-6.7,5.7-14.1,13-14.1c28.2,0,52.1-8.3,53.2-8.6c5.6-1.8,8.6-8,6.8-13.6
	c-1.8-5.6-8-8.6-13.6-6.8c-0.1,0-0.2,0.1-0.3,0.1c-0.2,0.1-21.7,7.5-46.1,7.5c-6.4,0-12.7,1.9-18,5.5c-33.4-17-45.3-27.4-52.1-45.2
	c-7.1-18.4,0.6-22,3.5-23.3c5.2-2.4,21.9,3.4,42.8,18.9c21.3,15.9,49.8,20.5,69.3,11.3c11.8-5.6,18.9-15.7,19.6-27.9
	c1.4-26.7,1.9-111,2-114.7c0-49.5,40.2-89.7,89.6-89.8c49.4,0.1,89.6,40.4,89.6,89.9c0,3.6,0.6,87.9,2,114.6
	c0.6,12.2,7.8,22.3,19.6,27.9c19.5,9.2,48,4.6,69.3-11.3c20.9-15.5,37.6-21.3,42.8-18.9C477.2,224.9,484.9,228.4,477.7,246.9"/>
<path class="st0" d="M196.7,94.2c0-2.4,1.2-4.7,3.3-6l27.2-17.6c0.6-0.4,1.3-0.6,2-0.5c1.7,0,3.3,0.8,4.9,2.4
	c1.5,1.4,2.4,3.4,2.4,5.5c0,2-0.6,3.4-1.9,4.2l-18.8,12.2l18.8,12.2c1.3,0.8,1.9,2.2,1.9,4.2c0,2.1-0.8,4.1-2.4,5.5
	c-1.5,1.6-3.2,2.4-4.9,2.4c-0.7,0-1.4-0.1-2-0.5L200,100.3C197.9,99,196.6,96.7,196.7,94.2"/>
<path class="st0" d="M265.6,110.6c0-2,0.6-3.4,1.9-4.2l18.8-12.2L267.5,82c-1.3-0.8-1.9-2.1-1.9-4.2c0-2.1,0.8-4.1,2.3-5.5
	c1.5-1.6,3.2-2.4,4.9-2.4c0.7,0,1.4,0.1,2,0.5L302,88.2c3.3,2.1,4.3,6.5,2.2,9.7c-0.5,0.9-1.3,1.6-2.2,2.2l-27.2,17.7
	c-0.6,0.4-1.3,0.6-2,0.5c-1.7,0-3.4-0.8-4.9-2.4C266.4,114.6,265.6,112.6,265.6,110.6"/>
</svg>
