<?xml version="1.0" encoding="utf-8"?>
<!-- Generator: Adobe Illustrator 19.2.0, SVG Export Plug-In . SVG Version: 6.00 Build 0)  -->
<svg version="1.1" id="Layer_1" xmlns="http://www.w3.org/2000/svg" xmlns:xlink="http://www.w3.org/1999/xlink" x="0px" y="0px"
	 viewBox="0 0 3646.1 805.8" enable-background="new 0 0 3646.1 805.8" xml:space="preserve">
<title>Rapid API_logo_side</title>
<path fill="#FFFFFF" d="M972.1,410.7c-10.6-4.9-26.3-7.2-48.7-1.1c8.8-31,0.2-55.2-14.7-69.4c-24.7-23.9-64.7-20.9-93,6.9
	c-28.8,28.3-62.2,46.6-83.3,56.4l-3.1-179.5C729.3,100.4,628.9,0,505.4,0h-1C381,0,280.6,100.4,280.6,223.5l-3.1,179.9
	c-21.1-9.8-54.5-28.2-83.4-56.4c-28.3-27.7-68.3-30.7-93-6.9c-14.8,14.3-23.4,38.4-14.7,69.5c-22.4-6.1-38.2-3.8-48.7,1.1
	C1.4,427.5-9.5,465.5,8.5,512.2c19.2,49.9,53.8,76.6,117.2,109.6c-3.3,8.2-5,16.9-5.2,25.7c-0.4,32.8,24.3,71.7,95,73.3
	c3.1,0.1,7,0.1,11.5,0.1c14.8,0,36-0.4,55.6-1.1c-1.6,4.5-2.5,9.3-2.8,14.1c-0.8,17.3,7.7,35.8,23.3,50.6
	c14.8,14.1,34.3,21.3,57.3,21.3c7,0,14-0.7,21-1.9c46.5-8,102.4-42.8,134.7-81.2c21.4,28,53.3,54.3,93.2,70.2
	c17.9,7.2,34.7,10.8,49.9,10.8c20.5,0,38.1-6.5,51.5-19.3c15.6-14.8,24.1-33.3,23.3-50.6c-0.2-4.8-1.2-9.5-2.8-14.1
	c18.5,0.7,38.1,1,52,1c4.3,0,8.1,0,11.1-0.1c70.7-1.6,95.3-40.4,95-73.2c-0.2-8.8-1.9-17.5-5.2-25.7c63.5-33,98-59.7,117.2-109.6
	c18-46.8,7.1-84.7-29.3-101.5 M845.9,377.8c12.8-12.5,26.5-12.8,32.8-6.7c8.9,8.5,9,35.4-26.7,74.4c-0.4,0.4-0.7,1-1,1.4
	c-3,2.1-5.8,4.1-8.9,6.4c-33.8,25.1-74.3,28.1-95.3,18.2c-9.7-4.5-12.8-10.5-13.9-14.8c0.2-1.2,0.3-2.5,0.3-3.8l0-3
	C752.7,442.3,803,419.9,845.9,377.8 M157.8,445.6c-35.6-39.1-35.5-66-26.6-74.5c6.4-6.1,20.1-5.9,32.8,6.7
	c42.9,42.1,93.3,64.5,112.7,72.2l-0.1,3c0,1.3,0.1,2.5,0.3,3.8c-1.1,4.3-4.3,10.2-13.9,14.8c-21,9.9-61.6,6.9-95.3-18.2
	c-3.1-2.3-6-4.3-9-6.4C158.4,446.5,158.1,446,157.8,445.6 M961.1,496.7c-13.8,35.8-37.8,56.7-104.9,90.9
	c-10.7-7.2-23.3-11-36.2-11.1c-49,0-92.1-14.8-92.7-15c-11.1-4.2-23.6,1.5-27.8,12.6c-4.2,11.1,1.5,23.6,12.6,27.8
	c0.3,0.1,0.6,0.2,0.9,0.3c2,0.7,50.3,17.4,107,17.4c14.8,0,26,14.9,26.2,28.3c0.2,17.9-19.5,28.9-52.9,29.6
	c-22.7,0.6-83.5-1-101.2-3.4c-1.1-0.1-2.3-0.2-3.5-0.1c-19.9-17.6-38.3-35.7-56.4-59.6c-7.2-9.5-20.7-11.3-30.2-4.1
	s-11.3,20.7-4.1,30.2c28.2,37.1,57,61.7,87.5,87.7c0.2,0.2,0.4,0.3,0.7,0.5c4.7,3.7,4.8,6.3,4.8,7.1c0.2,3.8-2.8,10.7-9.9,17.4
	c-14.7,14-43.8,4.5-55.7-0.3c-49.8-20-95-68.5-96.7-103.9c-0.6-11.9-10.7-21.1-22.6-20.5s-21.1,10.7-20.5,22.6l0,0
	c0.5,9.5,2.9,20,7.1,30.7c-19.2,31.2-73.4,71.9-118.5,79.6c-18.4,3.1-32.2,0.3-41.2-8.2c-7.1-6.8-10.1-13.6-9.9-17.4
	c0-0.8,0.2-3.4,4.9-7.1c0.2-0.2,0.4-0.3,0.6-0.5c30.5-26,59.3-50.5,87.5-87.7c7.1-9.5,5.2-23.1-4.4-30.2c-9.4-7.1-22.8-5.2-30,4.1
	c-18.1,23.9-36.5,41.9-56.4,59.6c-1.2,0-2.3,0-3.5,0.1c-17.1,2.3-82.1,4-105.2,3.4c-33.4-0.8-53.1-11.8-52.9-29.6
	c0.1-13.4,11.4-28.3,26.2-28.3c56.7,0,104.9-16.7,107-17.4c11.3-3.7,17.4-16,13.7-27.3c-3.7-11.3-16-17.4-27.3-13.7
	c-0.2,0.1-0.5,0.2-0.7,0.2c-0.4,0.2-43.6,15-92.7,15c-12.9,0.1-25.5,3.9-36.2,11.1c-67.1-34.3-91.1-55.2-104.9-91
	c-14.2-37,1.3-44.2,7.1-46.9c10.4-4.8,44.1,6.9,86.1,38.1c42.8,31.9,100.1,41.2,139.4,22.7c23.7-11.2,38.1-31.6,39.4-56.1
	c2.8-53.7,3.9-223.3,4-230.7c0-99.5,80.8-180.5,180.2-180.7c99.4,0.3,180.3,81.2,180.3,180.9c0,7.2,1.2,176.8,4,230.5
	c1.3,24.5,15.6,44.9,39.4,56.1c39.3,18.5,96.6,9.2,139.4-22.7c42-31.2,75.6-42.9,86.1-38.1C959.9,452.4,975.4,459.6,961.1,496.7"/>
<path fill="#FFFFFF" d="M395.7,189.6c-0.1-4.9,2.4-9.5,6.6-12.1L457,142c1.2-0.8,2.7-1.2,4.1-1.1c3.4,0,6.7,1.6,9.9,4.8
	c3.1,2.8,4.8,6.8,4.8,11c0,4-1.3,6.8-3.9,8.4L434,189.6l37.9,24.5c2.6,1.6,3.9,4.4,3.9,8.4c0,4.2-1.7,8.2-4.8,11
	c-3.1,3.2-6.4,4.8-9.9,4.8c-1.5,0.1-2.9-0.3-4.1-1.1l-54.7-35.5C398.1,199.1,395.5,194.5,395.7,189.6"/>
<path fill="#FFFFFF" d="M534.2,222.5c0-4,1.3-6.8,3.9-8.4l37.9-24.5L538.1,165c-2.6-1.6-3.9-4.3-3.9-8.4c0-4.2,1.7-8.2,4.7-11
	c3.1-3.2,6.5-4.8,9.9-4.8c1.4-0.1,2.9,0.3,4,1.1l54.7,35.5c6.7,4.2,8.7,13,4.5,19.6c-1.1,1.8-2.7,3.3-4.5,4.5l-54.7,35.6
	c-1.2,0.8-2.6,1.2-4,1.1c-3.5,0-6.8-1.6-9.9-4.8C535.9,230.6,534.2,226.6,534.2,222.5"/>
<path fill="#FFFFFF" d="M1292.5,428.4l-22.9,0.5h-30.9l-17.8,156.9l52.3,8.2l-2.2,24.7h-142.7l2.5-24.4l36.3-8.5l45.6-365l-37.7-6.5
	l3.4-28.6h52.7l84.6-4.5c47.6,0,82.8,8,105.8,24.3c23.8,16.7,35.7,42.8,35.6,78.1c0,32.9-9,61.4-26.9,85.8
	c-19.1,25.6-45.7,43.2-79.8,52.5c17.8,11.7,33.3,34.9,46.1,70c14.5,39.9,25.8,65.1,33.9,75.6c8.2,10.3,15.6,16.9,22.2,19.5
	s12.5,4,17.2,4h8.8l-1.1,28l-64-0.4c-10.4,0-22.6-15-36.8-45c-5.1-11.1-10.5-24-16.2-38.6l-15.8-40.7
	c-16.8-43.7-34.2-65.6-52.4-65.7 M1243,395.3c13.6,0.8,26.6,1.2,38.8,1.2c29.7,0,51.2-3.1,64.9-9.4c36.2-16.8,54.3-49.3,54.3-97.6
	c0-26.8-6-45.6-18.1-56.3c-13.6-12.3-37.4-18.5-71.7-18.5c-10.7,0-25.6,1.9-44.7,5.5L1243,395.3z"/>
<path fill="#FFFFFF" d="M1675.7,580.1c-24.5,29.4-53.3,44.1-86.3,44.2c-30.6,0-54.1-11.5-70.5-34.5c-15.2-21.6-22.9-50.8-22.9-87.8
	c0-30.4,7.3-61.6,21.8-93.9c24.1-54,60-90.2,107.6-108.7c16.7-6.7,34.6-10.1,52.6-10c18.5,0,37.7,3.4,57.4,10l33.7-9.7L1732,565.5
	c-0.9,7.8-0.3,13.4,1.8,16.7c2,3.2,5.6,5.1,9.4,4.9c4,0,11.5-4.3,22.2-12.9l8.9,15c-3.3,5.8-9,11.7-17.3,17.4
	c-16.8,11.8-32.1,17.6-45.9,17.6c-23.9,0-35.8-11.4-35.8-34.3v-4L1675.7,580.1z M1708,333.3c-8.9-6.2-20.7-9.3-35.4-9.3
	s-27.6,2.6-38.7,7.9c-11,5.3-21,12.5-29.5,21.2c-8.9,9.1-16.5,19.5-22.5,30.7c-6.3,11.6-11.6,23.8-15.7,36.3
	c-8.1,24.8-12.1,46.9-12.1,66.4c0,19.4,1,34.7,3.1,45.7s5.1,20.5,9,28c8.1,15.8,19.3,23.7,33.8,23.7c24.1,0,46.5-10.8,67.3-32.2
	c5.3-5.5,10.2-11.4,14.7-17.6L1708,333.3z"/>
<path fill="#FFFFFF" d="M1957.3,614.6c-16.4,6.3-32.2,9.6-47.3,9.6c-14.7,0.1-29.4-1.5-43.8-4.5l-20.2,146h-53.7l57.4-424.8
	l-30.9-14.5l5-22.4l74.2-14.8l13.2,6.8l-5.1,34.8c23-27.7,50.4-41.7,82.1-41.7c31.7,0,56,11.7,72.8,35
	c15.7,21.6,23.5,50.9,23.4,87.7c0,48.2-15.8,94.4-47.5,138.6C2015.4,581,1988.8,602.4,1957.3,614.6 M1871.8,579.8
	c9.8,6.8,22.3,10.3,37.8,10.3s28.4-2.8,39.2-8.1c10.8-5.5,20.5-12.8,28.7-21.7c8.6-9.5,15.9-20.1,21.7-31.5
	c6.2-11.8,11.3-24.2,15.2-36.9c8-25.2,12.2-51.5,12.2-78c0-26.2-4.2-46.9-12.7-61.7s-20.2-22.2-34.8-22.2
	c-21.7,0-43.1,10.5-64.2,31.4c-5.5,5.2-10.5,10.9-15.1,17L1871.8,579.8z"/>
<path fill="#FFFFFF" d="M2167.3,624.2c-23.4,0-35.1-10.8-35.1-32.3c0-12.8,3.1-38.6,9.4-77.6l26.2-173.1l-41.9-14.5l5.1-22.9
	l85.4-14.4l13.9,6.7L2191,565.7c-0.5,3.1-0.8,6.2-0.9,9.4c0,8,2.4,12.1,7.2,12.1c7,0,17-6.3,30.2-18.9l9.1,15
	c-9.5,14.7-24.5,26.6-45.1,35.9C2183.9,622.6,2175.7,624.3,2167.3,624.2 M2209.1,225.8c-4.7,0-9.3-1-13.6-2.8
	c-13-5.7-19.6-15.5-19.6-29.8c0-11.3,4.7-21.2,13.9-29.7c8.8-8,16.7-12.3,24.1-12.3s13.2,1,17.5,2.6c13.3,5.6,19.8,15,19.8,28.6
	c0,11.5-4.4,21.8-13.3,30.8C2229.5,221.7,2219.9,225.8,2209.1,225.8"/>
<path fill="#FFFFFF" d="M2483.5,624.2c-22.7,0-34-11.6-33.9-34.8v-11c-16.6,20.5-36.8,34.5-60.6,41.8c-8.6,2.7-19.3,4-32.1,4
	c-12.8,0-25.3-3.2-36.6-9.2c-11.6-5.9-21.6-14.6-29.2-25.3c-15.3-21.5-22.9-50.7-23-87.8c0-30.5,7.3-61.7,21.8-93.9
	c24.1-53.9,60-90.1,107.5-108.6c16.6-6.6,32.7-9.9,48.1-9.9c15.1-0.1,30.2,1.6,45,5.1l14.4-95.4L2470,187l6-23.5l74.6-11.8l15,7.6
	l-58.8,406.4c-2.1,14.3-0.2,21.5,5.7,21.5s14.1-4.3,24.9-13l8.8,14.8c-8.5,12.7-21.9,23-40.2,30.9c-7.2,3-14.8,4.5-22.6,4.5
	 M2483.9,336.6c-9.6-8.3-22.3-12.5-37.9-12.5s-28.9,2.7-40,8.1c-11.1,5.4-21.1,12.7-29.6,21.7c-8.8,9.5-16.4,20.1-22.6,31.5
	c-6.3,11.8-11.5,24.2-15.6,36.9c-8.1,25.1-12.2,51.3-12.2,77.7c0,26.5,4,47.2,12,62s18.9,22.2,32.6,22.2c23.4,0,46.1-10.9,67.9-32.8
	c5.5-5.5,10.6-11.4,15.3-17.6L2483.9,336.6z"/>
<path fill="#FFFFFF" d="M2863.6,185.6h77.2l70.7,396.8l44.7,9l-1.6,27.3h-166.7l1.8-27.3l41.2-8.1l-12.7-85.2h-150.2l-38.4,84.9
	l47.5,8.5l-2,27.3h-145.8l2.6-27.3l39.3-8.1L2863.6,185.6z M2912.5,459.6l-26.1-174.1l-2.8-43.3l-98.4,217.4L2912.5,459.6
	L2912.5,459.6z"/>
<path fill="#FFFFFF" d="M3080.9,591.4l40.4-8.5l46.8-360.5l-39.9-7.1l3.7-29.7h80.6c7.6,0,14.8-0.2,21.5-0.7s13.5-1,20.1-1.6
	c6.6-0.8,13.3-1.3,19.9-1.8s13.5-0.7,21-0.7c25.2,0,47,2.4,65.2,7.1s33.2,11.8,45.1,21.4c11.7,9.3,20.9,21.5,26.6,35.3
	c5.8,14.2,8.9,30.6,9.3,49.2c0.7,27.7-3.4,52.5-12.5,74.3c-8.6,20.9-21.7,39.7-38.4,55c-16.5,14.9-36.3,26.3-59.4,34.1
	c-23.1,7.8-48.4,11.7-76,11.7c-10.8,0-19.2-0.1-25.4-0.2s-11.3-0.5-15.7-0.9l-13.5,115.2l67.1,8.2l-2.3,27.5h-187L3080.9,591.4z
	 M3218.4,430.1c6.8,1.4,13.6,2.3,20.5,2.7c6.6,0.4,12.6,0.4,18.6,0.4c17.8-0.2,33.1-3.4,46.4-9.9c13.1-6.2,24.3-15.6,32.7-27.3
	c8.6-11.8,15-26,19.4-42.7c4.3-16.7,6.6-35.4,6.8-56.1c0.3-27.8-5.8-48.5-18.2-62c-12.3-13.6-32.1-20.1-59.3-19.6
	c-5.5,0-11.7,0.4-18.8,1.1c-6.8,0.5-13.6,1.6-20.2,3.3L3218.4,430.1z"/>
<polygon fill="#FFFFFF" points="3482.7,185.6 3479.3,215.3 3518.9,222.3 3472.8,582.9 3430.7,591.5 3427.6,618.5 3595.6,618.5 
	3597.7,591.1 3550.6,582.9 3596.8,222.3 3642.9,215.3 3646.1,185.6 "/>
</svg>
